<svg width="1024" height="1024" viewBox="0 0 1024 1024" fill="none" xmlns="http://www.w3.org/2000/svg">
<g filter="url(#filter0_iii_5_33)">
<path d="M0 400C0 211.438 0 117.157 58.5786 58.5786C117.157 0 211.438 0 400 0H624C812.562 0 906.843 0 965.421 58.5786C1024 117.157 1024 211.438 1024 400V624C1024 812.562 1024 906.843 965.421 965.421C906.843 1024 812.562 1024 624 1024H400C211.438 1024 117.157 1024 58.5786 965.421C0 906.843 0 812.562 0 624V400Z" fill="url(#paint0_linear_5_33)"/>
</g>
<defs>
<filter id="filter0_iii_5_33" x="-2" y="-2" width="1028" height="1028" filterUnits="userSpaceOnUse" color-interpolation-filters="sRGB">
<feFlood flood-opacity="0" result="BackgroundImageFix"/>
<feBlend mode="normal" in="SourceGraphic" in2="BackgroundImageFix" result="shape"/>
<feColorMatrix in="SourceAlpha" type="matrix" values="0 0 0 0 0 0 0 0 0 0 0 0 0 0 0 0 0 0 127 0" result="hardAlpha"/>
<feOffset dx="2" dy="2"/>
<feGaussianBlur stdDeviation="1.25"/>
<feComposite in2="hardAlpha" operator="arithmetic" k2="-1" k3="1"/>
<feColorMatrix type="matrix" values="0 0 0 0 1 0 0 0 0 1 0 0 0 0 1 0 0 0 0.4 0"/>
<feBlend mode="normal" in2="shape" result="effect1_innerShadow_5_33"/>
<feColorMatrix in="SourceAlpha" type="matrix" values="0 0 0 0 0 0 0 0 0 0 0 0 0 0 0 0 0 0 127 0" result="hardAlpha"/>
<feOffset dx="-0.5" dy="-0.5"/>
<feGaussianBlur stdDeviation="1"/>
<feComposite in2="hardAlpha" operator="arithmetic" k2="-1" k3="1"/>
<feColorMatrix type="matrix" values="0 0 0 0 0 0 0 0 0 0 0 0 0 0 0 0 0 0 1 0"/>
<feBlend mode="normal" in2="effect1_innerShadow_5_33" result="effect2_innerShadow_5_33"/>
<feColorMatrix in="SourceAlpha" type="matrix" values="0 0 0 0 0 0 0 0 0 0 0 0 0 0 0 0 0 0 127 0" result="hardAlpha"/>
<feOffset dx="-2" dy="-2"/>
<feGaussianBlur stdDeviation="1.5"/>
<feComposite in2="hardAlpha" operator="arithmetic" k2="-1" k3="1"/>
<feColorMatrix type="matrix" values="0 0 0 0 0.266667 0 0 0 0 0.12549 0 0 0 0 1 0 0 0 1 0"/>
<feBlend mode="normal" in2="effect2_innerShadow_5_33" result="effect3_innerShadow_5_33"/>
</filter>
<linearGradient id="paint0_linear_5_33" x1="47.3737" y1="41.7959" x2="957.597" y2="1026.84" gradientUnits="userSpaceOnUse">
<stop stop-color="#E0DAFF"/>
<stop offset="0.337958" stop-color="#C4B9FF"/>
<stop offset="0.729068" stop-color="#7C63FF"/>
<stop offset="1" stop-color="#4420FF"/>
</linearGradient>
</defs>
</svg>
